<?xml version="1.0" encoding="utf-8"?>
<svg xmlns="http://www.w3.org/2000/svg" xmlns:xlink="http://www.w3.org/1999/xlink" x="0px" y="0px"
	 viewBox="0 0 372.6 217" style="enable-background:new 0 0 372.6 217;" xml:space="preserve">
<style type="text/css">
	.st0{fill:none;stroke:#000000;stroke-width:0.75;stroke-miterlimit:10;}
</style>
<path class="st0" d="M39.6,90.9c15.6,2.6,31.7,1.6,46.8-2.9c10.9-3.2,22.7-10.1,23.8-21.4c0.6-6.4-2.6-12.6-6.5-17.7
	c-3.1-4.1-6.9-7.8-11.7-9.6c-6.2-2.4-13.4-1-19,2.6c-5.6,3.6-9.7,9.1-12.6,15.1c-4.5,9.4-6.1,20.1-4.7,30.4c0.4,2.8,1.1,5.8,2.8,8
	c3.1,4,8.7,5,13.8,5.4c7.2,0.5,14.4,0.4,21.6-0.3c6.8-0.7,14.3-1.9,20,1.8c3.6,2.3,5.8,6.2,7.3,10.2c4.2,10.7,4,23.1-0.4,33.8
	c-4.5,10.6-13.2,19.4-23.8,23.9c-5.9,2.5-13.7,3.3-17.9-1.5c-2.6-2.9-3-7.1-3.1-11c-0.3-14.3,3.5-28.9,12.1-40.5
	s22.1-19.6,36.4-20.1c14.3-0.5,29,7.1,35.5,19.9c1.4,2.8,2.5,5.9,2.1,9s-2.3,6.2-5.3,7c-5.1,1.4-9.7-3.9-11.2-9
	c-3.6-12.2,2.7-27,14.6-31.6c11.9-4.7,27.3,2.9,29.8,15.4c0.7,3.8,0.2,8.1-2.4,11c-5.1,5.5-15.4,1.9-18.2-5c-2.8-7,0.1-15,4.7-20.9
	c2.7-3.5,6.1-6.6,10.3-7.8c4.2-1.2,9.3-0.2,11.8,3.3c1.6,2.1,2,4.8,2.4,7.5c3.9,24.3,6,48.9,6.4,73.6c0.1,6.6-0.5,14.3-6,17.9
	c-2.1,1.4-4.7,1.9-7.2,1.9c-13.3,0.1-23.5-13.9-23-27.2c0.4-13.3,8.7-25.1,18.5-34.1c8.2-7.6,17.9-13.9,28.8-16.8
	c5.4-1.4,11.2-1.9,16.5,0s9.6,6.8,9.6,12.4c0,5.6-5.4,10.9-10.8,9.7c-6.8-1.5-8.6-10.6-7.1-17.4c2.1-9.7,7.9-18.6,15.9-24.5
	c2.6-1.9,5.6-3.5,8.8-3.6c5.9-0.2,10.9,4.7,13.3,10.2c1.5,3.4,2.2,7.5,0.6,10.8c-1.6,3.4-6.3,5.4-9.3,3.2
	c-2.7-19.2,1.8-39.3,12.3-55.6c-38.4,36.3-76.8,72.6-115.2,108.9c-12.8,12.1-25.7,24.3-40.1,34.6c5.7-2.6,11.3-5.3,17-7.9
	c28.9-13.5,58.6-27.3,90.5-30c31.8-2.7,66.7,7.7,84.9,34"/>
<path class="st0" d="M217.4,196.9c-1.2-5.2,1.2-10.9,5.2-14.5s9.5-5.2,14.9-5.4c3.1-0.1,6.4,0.3,9,2.1c2.2,1.4,3.7,3.6,5.2,5.7
	c3.7,4.9,8.2,9.5,13.7,12.3c5.5,2.8,12.3,3.6,18,1c3.2-1.5,5.9-3.9,8.5-6.2"/>
</svg>
